<?xml version="1.0" encoding="utf-8"?>
<!-- Generator: Adobe Illustrator 21.0.2, SVG Export Plug-In . SVG Version: 6.00 Build 0)  -->
<svg version="1.1" id="Layer_1" xmlns="http://www.w3.org/2000/svg" xmlns:xlink="http://www.w3.org/1999/xlink" x="0px" y="0px"
	 viewBox="0 0 870.2 37" style="enable-background:new 0 0 870.2 37;" xml:space="preserve">
<style type="text/css">
	.st0{fill:#003299;}
</style>
<g>
	<rect x="603.3" class="st0" width="2.4" height="37"/>
	<g>
		<g>
			<polygon class="st0" points="6.7,7.9 6.7,30.6 23.5,30.6 23.5,26.4 12.4,26.4 12.4,20.9 22.8,20.9 22.8,16.8 12.4,16.8 12.4,12 
				23.3,12 23.3,7.9 			"/>
			<path class="st0" d="M55,7.9v12.9C55,28.3,49.8,31,43.6,31c-6.6,0-11.4-3-11.4-10.1v-13h5.7v13.1c0,3.3,2.4,5.2,5.6,5.2
				c3,0,5.8-1.6,5.8-5.6V7.9H55z"/>
			<path class="st0" d="M70.1,17.2h3c1.6,0,3.1-0.7,3.1-2.6c0-1.7-1.1-2.6-3.3-2.6h-2.8V17.2z M74.6,7.9c4.7,0,7.5,3.1,7.5,6.6
				c0,2.5-1.3,4.4-3.9,5.6c2.4,1.2,3,4,6.2,10.6h-6.2c-2.4-4.9-3.3-9.3-6.4-9.3h-1.6v9.3h-5.7V7.9H74.6z"/>
			<path class="st0" d="M103,12.3c-4.3,0-7.3,2.8-7.3,7c0,4.2,2.8,7,7.3,7c4.3,0,7.2-2.8,7.2-7S107.3,12.3,103,12.3 M103,30.9
				c-8.3,0-13.1-5.9-13.1-11.7c0-5.5,4.5-11.7,13.1-11.7s13,6.2,13,11.7C116,25.1,111.2,30.9,103,30.9"/>
			<path class="st0" d="M130.5,17.3h2.6c2.6,0,3.5-0.9,3.5-2.6c0-2-1.1-2.6-4.2-2.6h-2L130.5,17.3L130.5,17.3z M135,7.9
				c5.2,0,7.5,3.7,7.5,6.8c0,3.2-2.3,6.9-7.5,6.9h-4.5v9.1h-5.7V7.9H135z"/>
			<polygon class="st0" points="168,30.6 151.1,30.6 151.1,7.9 167.7,7.9 167.7,12 156.8,12 156.8,16.8 167.2,16.8 167.2,20.9 
				156.8,20.9 156.8,26.4 168,26.4 			"/>
			<path class="st0" d="M186.9,13.3l-3.3,8.9h7L186.9,13.3z M200.3,30.6h-6.1l-1.9-4.5h-10.2l-1.7,4.5h-6l9.2-22.8h6.6L200.3,30.6z"
				/>
			<polygon class="st0" points="230.5,30.6 225.8,30.6 213.2,16 213.2,30.6 207.5,30.6 207.5,7.9 212.7,7.9 224.8,21.8 224.8,7.9 
				230.5,7.9 			"/>
		</g>
		<g>
			<path class="st0" d="M275.2,28.7c-3.2,1.6-5.6,2.3-8.9,2.3c-8.9,0-13.3-5.8-13.3-11.7c0-6.1,4.9-11.8,13.7-11.8
				c3.2,0,6,0.7,8.3,2v5.1c-2.5-1.4-5-2.4-7.9-2.4c-4.8,0-8.3,2.8-8.3,6.9s3.4,7,8.1,7c3,0,5-0.9,8.3-2.5L275.2,28.7L275.2,28.7z"/>
			<polygon class="st0" points="301.1,30.6 284.3,30.6 284.3,7.9 300.8,7.9 300.8,12 290,12 290,16.8 300.4,16.8 300.4,20.9 
				290,20.9 290,26.4 301.1,26.4 			"/>
			<polygon class="st0" points="333,30.6 328.3,30.6 315.7,16 315.7,30.6 310,30.6 310,7.9 315.2,7.9 327.3,21.8 327.3,7.9 333,7.9 
							"/>
			<polygon class="st0" points="363.3,12 355,12 355,30.6 349.3,30.6 349.3,12 341.1,12 341.1,7.9 363.3,7.9 			"/>
			<path class="st0" d="M376.9,17.2h3c1.6,0,3.1-0.7,3.1-2.6c0-1.7-1.1-2.6-3.3-2.6h-2.8V17.2z M381.4,7.9c4.7,0,7.5,3.1,7.5,6.6
				c0,2.5-1.3,4.4-3.9,5.6c2.4,1.2,3,4,6.2,10.6h-6.2c-2.4-4.9-3.3-9.3-6.4-9.3h-1.6v9.3h-5.7V7.9H381.4z"/>
			<path class="st0" d="M408.5,13.3l-3.3,8.9h7L408.5,13.3z M421.8,30.6h-6.1l-1.9-4.5h-10.2l-1.7,4.5h-6l9.2-22.8h6.6L421.8,30.6z"
				/>
			<polygon class="st0" points="446.3,30.6 429,30.6 429,7.9 434.6,7.9 434.6,26.4 446.3,26.4 			"/>
		</g>
		<g>
			<path class="st0" d="M473.5,26.4h3.2c3.1,0,4.3-0.8,4.3-2.8c0-1.7-1.5-2.6-3.5-2.6h-4V26.4z M473.5,16.9h3c2.1,0,2.9-1.3,2.9-2.5
				c0-1.2-0.8-2.4-2.9-2.4h-3V16.9z M477.7,7.9c5.4,0,7.5,3.2,7.5,5.7c0,1.9-1.2,3.6-3.1,4.5c3.3,0.8,4.9,3.2,4.9,5.8
				c0,2.6-1.4,6.7-8.1,6.7h-11.1V7.9H477.7z"/>
			<path class="st0" d="M505.8,13.3l-3.3,8.9h7L505.8,13.3z M519.1,30.6H513l-1.9-4.5H501l-1.7,4.5h-6l9.2-22.8h6.6L519.1,30.6z"/>
			<polygon class="st0" points="549.3,30.6 544.6,30.6 532,16 532,30.6 526.3,30.6 526.3,7.9 531.5,7.9 543.7,21.8 543.7,7.9 
				549.3,7.9 			"/>
			<polygon class="st0" points="570.7,18.5 580.8,30.6 573.7,30.6 564.7,19.9 564.7,30.6 559,30.6 559,7.9 564.7,7.9 564.7,18.2 
				564.7,18.2 571.9,7.9 578.1,7.9 			"/>
		</g>
	</g>
	<g>
		<polygon class="st0" points="639.9,10.7 630.3,10.7 630.3,17.6 639.7,17.6 639.7,20.5 630.3,20.5 630.3,27.6 640.3,27.6 
			640.3,30.6 627.1,30.6 627.1,7.7 639.9,7.7 		"/>
		<path class="st0" d="M667.4,21.5c0,5.6-3.3,9.3-10.1,9.3c-4.8,0-9.5-2.7-9.5-8.9V7.7h3.3v13.5c0,2.6,0.3,3.7,1.4,4.7
			c1.3,1.3,2.9,2,4.9,2c2.5,0,4.3-0.8,5.4-1.8c1.2-1.2,1.4-2.8,1.4-4.9V7.7h3.3L667.4,21.5L667.4,21.5z"/>
		<path class="st0" d="M679.8,17.7h2.1c3.5,0,4.5-1.8,4.5-3.7c-0.1-2.2-1.3-3.5-4.5-3.5h-2.1V17.7z M682.2,7.7
			c4.6,0,7.5,2.4,7.5,6.4c0,2.6-1.4,4.6-3.8,5.6c2.1,1.4,3.3,3.5,5.1,6.3c0.9,1.6,1.6,2.4,3.1,4.5h-3.9l-3-4.7c-3-4.7-4.4-5.2-6-5.2
			h-1.4v9.9h-3.3V7.7H682.2z"/>
		<path class="st0" d="M711.7,27.9c5.1,0,8.9-3.7,8.9-8.7c0-5-3.8-8.7-8.9-8.7s-8.9,3.7-8.9,8.7C702.8,24.1,706.6,27.9,711.7,27.9
			 M711.7,7.5c7.5,0,12.3,5.4,12.3,11.7c0,6.2-4.6,11.7-12.3,11.7c-7.5,0-12.2-5.5-12.2-11.7C699.4,12.8,704.3,7.5,711.7,7.5"/>
		<path class="st0" d="M743.3,12.7c-2-1.8-3.8-2.4-5.4-2.4c-2.1,0-3.6,1.1-3.6,2.7c0,4.4,9.9,4.3,9.9,11.6c0,3.6-2.7,6.2-6.4,6.2
			c-2.5,0-4.5-0.7-6.4-2.1v-4.1c1.7,2.2,3.8,3.3,6,3.3c2.5,0,3.7-1.6,3.7-2.8c0-4.7-9.9-5.2-9.9-11.5c0-3.7,2.7-6.1,6.9-6.1
			c1.8,0,3.5,0.5,5.1,1.6L743.3,12.7L743.3,12.7z"/>
		<polygon class="st0" points="766.1,7.7 770,7.7 761.5,18.5 761.5,30.6 758.3,30.6 758.3,18.4 749.8,7.7 753.7,7.7 759.8,15.6 		
			"/>
		<path class="st0" d="M787.3,12.7c-2-1.8-3.8-2.4-5.4-2.4c-2.1,0-3.6,1.1-3.6,2.7c0,4.4,9.8,4.3,9.8,11.6c0,3.6-2.7,6.2-6.4,6.2
			c-2.4,0-4.5-0.7-6.4-2.1v-4.1c1.7,2.2,3.8,3.3,6,3.3c2.5,0,3.7-1.6,3.7-2.8c0-4.7-9.8-5.2-9.8-11.5c0-3.7,2.7-6.1,6.9-6.1
			c1.8,0,3.5,0.5,5.1,1.6L787.3,12.7L787.3,12.7z"/>
		<polygon class="st0" points="813.4,10.7 805.6,10.7 805.6,30.6 802.2,30.6 802.2,10.7 794.4,10.7 794.4,7.7 813.4,7.7 		"/>
		<polygon class="st0" points="834,10.7 824.3,10.7 824.3,17.6 833.6,17.6 833.6,20.5 824.3,20.5 824.3,27.6 834.2,27.6 834.2,30.6 
			821,30.6 821,7.7 834,7.7 		"/>
		<polygon class="st0" points="860.4,7.7 852.8,17.1 845.2,7.7 842.2,7.7 842.2,30.6 845.4,30.6 845.4,12.8 845.5,12.8 852.5,21.6 
			853.1,21.6 860,12.8 860.1,12.8 860.1,30.6 863.4,30.6 863.4,7.7 		"/>
	</g>
</g>
</svg>
